<?xml version="1.0" standalone="no"?>
<!DOCTYPE svg PUBLIC "-//W3C//DTD SVG 20010904//EN"
 "http://www.w3.org/TR/2001/REC-SVG-20010904/DTD/svg10.dtd">
<svg version="1.0" xmlns="http://www.w3.org/2000/svg"
 width="442.000000pt" height="442.000000pt" viewBox="0 0 442.000000 442.000000"
 preserveAspectRatio="xMidYMid meet">
<metadata>
Created by potrace 1.11, written by Peter Selinger 2001-2013
</metadata>
<g transform="translate(0.000000,442.000000) scale(0.100000,-0.100000)"
fill="#000000" stroke="none">
<path d="M4044 3245 c-158 -56 -249 -109 -414 -240 -214 -170 -453 -460 -664
-807 -45 -75 -102 -219 -128 -327 -36 -151 -14 -292 66 -435 104 -185 247
-231 476 -154 294 99 518 217 637 334 50 50 58 79 11 40 -67 -54 -175 -124
-248 -161 -78 -40 -301 -127 -307 -121 -2 2 22 14 54 26 284 114 533 275 533
347 0 43 -27 36 -100 -24 -85 -69 -160 -114 -179 -108 -13 5 -120 -50 -132
-67 -3 -5 -23 -11 -45 -13 -21 -2 -70 -17 -109 -33 -82 -34 -157 -53 -90 -23
22 9 78 30 125 46 91 30 109 37 155 63 121 69 211 116 218 114 4 -1 7 3 7 8 0
6 6 10 14 10 8 0 17 9 21 19 3 11 14 23 24 26 24 7 34 42 14 49 -23 9 -27 8
-83 -34 -204 -152 -730 -329 -811 -272 -20 14 -21 21 -16 96 4 45 9 105 13
134 6 45 4 52 -10 52 -15 0 -14 4 5 33 13 17 26 34 31 37 13 9 58 100 58 117
0 9 -6 13 -15 9 -23 -8 -18 0 20 40 19 19 69 85 111 145 123 178 255 343 393
491 39 42 57 55 63 46 7 -12 9 -8 8 17 -1 9 109 98 178 144 91 61 206 113 262
119 47 4 49 3 56 -24 6 -24 -6 -123 -31 -244 -30 -147 -34 -234 -15 -280 12
-29 64 -62 84 -54 17 7 76 119 79 151 2 16 6 33 9 38 22 36 42 174 42 280 -1
122 -23 205 -78 300 -75 127 -137 146 -292 90z m147 -44 c-11 -7 -11 -9 0 -14
8 -3 -4 -3 -26 -1 -29 3 -34 2 -20 -4 18 -8 17 -10 -12 -16 -18 -4 -34 -6 -35
-5 -2 1 -14 -3 -27 -10 -14 -8 -21 -9 -17 -2 12 19 -16 12 -71 -19 -29 -17
-53 -26 -53 -21 0 21 198 97 260 100 12 1 12 -1 1 -8z m34 -130 c5 -9 -3 -13
-58 -25 -16 -4 -68 -25 -117 -46 -93 -42 -105 -46 -95 -30 9 15 101 60 175 86
74 26 86 28 95 15z m-485 -105 c0 -2 -8 -10 -17 -17 -16 -13 -17 -12 -4 4 13
16 21 21 21 13z m-40 -29 c0 -2 -10 -12 -22 -23 l-23 -19 19 23 c18 21 26 27
26 19z m-175 -177 c-3 -5 -12 -10 -18 -10 -7 0 -6 4 3 10 19 12 23 12 15 0z
m-260 -540 c-9 -16 -20 -30 -26 -30 -6 0 -1 14 11 30 12 17 23 30 26 30 2 0
-2 -13 -11 -30z"/>
<path d="M4098 3173 c6 -2 18 -2 25 0 6 3 1 5 -13 5 -14 0 -19 -2 -12 -5z"/>
<path d="M1469 3249 c-42 -3 -81 -9 -87 -13 -5 -3 -36 -8 -68 -11 -33 -3 -72
-8 -89 -12 -16 -4 -34 -8 -40 -9 -5 -1 -28 -7 -50 -12 -22 -6 -100 -25 -173
-41 -171 -39 -340 -109 -356 -149 -11 -27 26 -23 111 11 79 32 234 84 273 92
8 2 62 15 120 29 58 14 114 26 125 26 22 -1 -69 -33 -122 -45 -18 -4 -33 -10
-33 -13 0 -4 -10 -7 -22 -8 -79 -2 -254 -54 -275 -81 -6 -8 -29 -16 -50 -18
-47 -3 -75 -14 -67 -27 3 -5 -2 -9 -12 -8 -40 5 -45 0 -42 -32 2 -25 8 -34 25
-36 12 -2 87 17 165 42 144 45 371 106 397 106 35 0 -8 -14 -151 -50 -212 -54
-371 -105 -376 -120 -3 -9 1 -11 13 -6 54 20 473 135 498 136 20 0 -13 -137
-104 -426 -113 -363 -189 -545 -292 -699 -44 -66 -89 -131 -99 -145 -10 -14
-51 -68 -90 -120 -105 -139 -231 -265 -302 -300 -74 -37 -93 -38 -107 -2 -6
15 -15 35 -20 44 -12 23 0 77 24 110 11 15 21 43 22 63 1 20 7 41 12 46 7 7 9
2 6 -15 -8 -40 2 -31 30 27 56 117 196 295 302 385 48 41 151 92 196 98 96 13
100 14 97 37 -2 13 -22 33 -51 51 -86 53 -188 35 -311 -55 -64 -46 -252 -237
-306 -309 -85 -115 -180 -328 -180 -404 0 -172 212 -296 398 -235 121 40 271
176 442 402 142 187 287 451 296 539 6 66 24 119 48 142 35 33 50 65 33 72
-11 4 -9 29 15 142 15 75 40 173 53 218 14 44 29 98 32 120 3 21 14 53 24 71
10 17 18 49 17 70 0 44 23 98 50 112 44 24 292 35 395 17 39 -6 47 -5 47 7 0
9 -8 18 -17 20 -12 3 -9 5 8 6 41 2 44 28 7 61 -25 23 -29 32 -20 43 9 11 3
18 -31 38 -37 21 -55 24 -152 25 -60 0 -144 -3 -186 -7z m280 -55 c2 -2 -20
-4 -50 -5 -39 0 -49 -3 -34 -9 15 -6 5 -9 -35 -10 -30 0 -73 -3 -95 -6 -130
-18 -155 -20 -148 -13 5 5 26 13 48 18 36 9 34 10 -20 5 -104 -10 -52 7 61 19
98 12 262 12 273 1z m-529 -68 c0 -2 -11 -6 -25 -8 -13 -3 -22 -1 -19 3 5 9
44 13 44 5z m578 -25 c13 -3 -30 -6 -95 -6 -110 0 -208 -8 -278 -21 -16 -3
-26 -2 -22 3 24 24 327 42 395 24z m-1149 -984 c-14 -7 -33 -18 -43 -26 -11
-9 -16 -10 -16 -2 0 12 55 41 75 40 6 0 -2 -6 -16 -12z m-69 -36 c0 -12 -83
-81 -90 -75 -2 3 2 9 10 14 13 8 13 10 0 10 -9 0 -21 -13 -26 -29 -11 -27
-123 -125 -133 -116 -7 8 31 45 40 39 5 -3 9 1 9 9 0 24 120 129 138 122 9 -3
13 -3 9 1 -4 4 1 13 11 20 20 16 32 17 32 5z m60 -45 c0 -2 -19 -16 -42 -31
-45 -30 -184 -165 -232 -225 -18 -23 -16 -18 6 14 47 69 147 170 209 211 54
35 59 38 59 31z m409 -133 c-71 -120 -162 -260 -223 -343 -72 -99 -199 -237
-251 -273 -16 -11 2 13 42 54 145 150 197 216 348 448 55 83 101 151 103 151
2 0 -6 -17 -19 -37z m-719 -43 c0 -5 -5 -10 -11 -10 -5 0 -7 5 -4 10 3 6 8 10
11 10 2 0 4 -4 4 -10z m505 -66 c-8 -16 -15 -34 -15 -41 0 -6 -4 -13 -8 -15
-7 -3 -42 -51 -118 -162 -12 -17 -20 -34 -17 -38 2 -5 -2 -8 -10 -8 -14 0 -32
-27 -29 -43 1 -4 -9 -12 -23 -17 -14 -5 -25 -14 -25 -20 0 -5 0 -13 0 -17 -1
-17 -65 -73 -77 -69 -7 3 -30 -9 -51 -26 -20 -18 -3 3 38 46 92 95 80 82 170
196 41 53 98 130 125 172 51 77 68 95 40 42z m-584 -197 c-10 -9 -11 -8 -5 6
3 10 9 15 12 12 3 -3 0 -11 -7 -18z"/>
<path d="M2434 3249 c-68 -12 -266 -118 -364 -195 -74 -58 -243 -224 -311
-304 -30 -36 -57 -67 -60 -70 -15 -14 -132 -174 -172 -237 -168 -263 -243
-557 -192 -753 49 -189 170 -313 345 -353 62 -15 67 -14 145 10 86 27 150 62
271 149 90 65 104 62 85 -19 -13 -53 -5 -114 28 -199 19 -51 113 -49 119 2 5
57 24 130 32 125 4 -3 7 3 6 13 0 11 6 17 18 17 20 0 25 12 30 86 2 25 8 54
14 65 6 10 22 48 35 84 44 115 78 180 93 180 14 0 53 71 54 97 0 7 11 24 25
39 14 15 25 35 25 44 0 10 30 62 66 116 63 94 66 100 55 130 -9 24 -9 43 1 77
11 43 13 45 56 51 76 10 116 7 150 -14 83 -51 110 5 59 122 -34 76 -52 82
-220 75 -72 -3 -141 -8 -152 -10 -18 -4 -76 -14 -130 -22 -11 -2 -42 -6 -69
-10 -81 -10 -264 -73 -276 -95 -15 -29 14 -41 56 -24 45 19 53 18 47 -6 -3
-11 -14 -21 -27 -21 -11 -1 -34 -2 -51 -3 -39 -2 -66 -49 -42 -73 12 -12 24
-13 69 -4 30 7 68 14 84 17 16 3 69 14 118 25 49 11 90 18 92 16 5 -5 -128
-41 -233 -63 -46 -10 -83 -21 -83 -26 0 -14 61 -8 145 13 44 11 90 23 103 26
43 10 24 -34 -57 -134 -83 -103 -118 -141 -285 -312 -116 -119 -263 -240 -336
-277 -54 -27 -143 -38 -215 -25 -50 8 -68 41 -67 120 0 73 8 147 16 160 16 25
45 124 40 133 -4 6 -10 5 -15 -3 -14 -23 -10 5 6 45 14 33 31 53 19 22 -3 -8
-1 -17 4 -20 13 -8 46 78 39 98 -3 8 1 20 9 26 8 7 14 24 14 39 1 47 36 105
94 155 41 35 56 54 53 67 -4 13 5 25 28 39 18 11 49 39 68 63 62 76 105 117
133 127 18 7 24 14 17 21 -9 9 95 119 192 203 24 20 26 25 12 26 -25 0 -11 20
15 20 12 0 53 17 92 39 76 41 166 71 215 71 19 0 43 -11 63 -28 63 -54 89 -49
92 19 4 75 -38 188 -79 215 -26 17 -149 24 -211 13z m156 -58 c0 -3 -33 -7
-73 -7 l-72 -1 50 11 c48 12 95 10 95 -3z m-12 -38 c-10 -2 -26 -2 -35 0 -10
3 -2 5 17 5 19 0 27 -2 18 -5z m26 -82 c7 -10 -18 -17 -94 -27 -40 -5 -52 -3
-45 4 18 20 130 38 139 23z m336 -541 c12 0 11 -3 -3 -11 -9 -5 -22 -7 -27 -4
-6 3 -10 2 -10 -3 0 -10 -36 -9 -46 1 -4 4 -28 8 -53 9 l-46 1 45 6 c39 5 76
6 140 1z m-190 -10 c0 -5 -5 -10 -11 -10 -5 0 -7 5 -4 10 3 6 8 10 11 10 2 0
4 -4 4 -10z m-139 -21 c-24 -9 -50 -16 -81 -19 -8 -1 -4 -6 10 -10 23 -7 23
-8 3 -9 -12 -1 -24 3 -27 8 -8 12 -73 -3 -94 -22 -17 -15 -101 -42 -108 -34
-2 2 2 12 10 22 10 14 50 26 147 46 141 29 180 34 140 18z m227 4 c-10 -2 -28
-2 -40 0 -13 2 -5 4 17 4 22 1 32 -1 23 -4z m112 -80 c-70 -7 -130 -7 -130 -1
0 9 75 14 120 8 27 -3 29 -5 10 -7z m-143 -9 c-3 -3 -12 -4 -19 -1 -8 3 -5 6
6 6 11 1 17 -2 13 -5z m-788 -778 c-60 -57 -164 -133 -139 -101 14 17 13 18
-5 13 -11 -4 -44 -16 -72 -27 -70 -28 -68 -17 3 14 53 24 173 92 184 105 7 8
74 50 80 50 3 -1 -20 -25 -51 -54z m-159 -121 c0 -2 -13 -11 -30 -20 -38 -19
-40 -11 -2 9 31 17 32 18 32 11z m170 -25 c-61 -47 -213 -120 -226 -108 -3 4
234 127 246 127 3 0 -6 -8 -20 -19z"/>
<path d="M1180 2185 c0 -8 2 -15 4 -15 2 0 6 7 10 15 3 8 1 15 -4 15 -6 0 -10
-7 -10 -15z"/>
<path d="M2300 1230 c0 -5 5 -10 10 -10 6 0 10 5 10 10 0 6 -4 10 -10 10 -5 0
-10 -4 -10 -10z"/>
</g>
</svg>
